<?xml version="1.0" standalone="no"?>
<!DOCTYPE svg PUBLIC "-//W3C//DTD SVG 1.1//EN" "http://www.w3.org/Graphics/SVG/1.1/DTD/svg11.dtd">




<svg xmlns="http://www.w3.org/2000/svg"
     xmlns:xlink="http://www.w3.org/1999/xlink"
     height="240" width="1020" xmlns:xsi="http://www.w3.org/2001/XMLSchema-instance"
     xsi:schemaLocation="http://www.w3.org/1999/xlink ">

    <style type="text/css">
        tspan {
            /*font-family: NotoSerif, Noto Serif, serif;*/
            font-family: "Courier New", monospace;
            font-size: 16px;
        }

        .poly {
            /*fill: lime;*/
            /*stroke: black;*/
            /*stroke-width: 2*/
        }

        .grid-line {
            stroke: #ebf7fa;;
            stroke-width: 1;
        }

        .period-text {
            stroke-width:1;
            stroke: black;
            fill: black;
        }

        .axis { stroke: red; stroke-width:4; }
        .axis-point { stroke: red; stroke-width:2; }

    </style>

    <linearGradient id="linear_4t2hbxwrb7tzw7b9" x1="1.836909530733566e-16" y1="0" x2="0" y2="1">
        <stop offset="0%" stop-color="#ffb400"/>
        <stop offset="100%" stop-color="#eda200" stop-opacity="95"/>
    </linearGradient>

    <rect width="1020" height="240" fill="white"/>

    <g transform="translate(10, 10)">
        <rect fill-rule="evenodd" rx="10" ry="10" x="0" y="0" width="1000" height="220"
              style="fill:white;stroke-width:1;stroke:white"/>

            <line x1="0" x2="1000" y1="10" y2="10" class="grid-line" />
            <line x1="0" x2="1000" y1="20" y2="20" class="grid-line" />
            <line x1="0" x2="1000" y1="30" y2="30" class="grid-line" />
            <line x1="0" x2="1000" y1="40" y2="40" class="grid-line" />
            <line x1="0" x2="1000" y1="50" y2="50" class="grid-line" />
            <line x1="0" x2="1000" y1="60" y2="60" class="grid-line" />
            <line x1="0" x2="1000" y1="70" y2="70" class="grid-line" />
            <line x1="0" x2="1000" y1="80" y2="80" class="grid-line" />
            <line x1="0" x2="1000" y1="90" y2="90" class="grid-line" />
            <line x1="0" x2="1000" y1="100" y2="100" class="grid-line" />
            <line x1="0" x2="1000" y1="110" y2="110" class="grid-line" />
            <line x1="0" x2="1000" y1="120" y2="120" class="grid-line" />
            <line x1="0" x2="1000" y1="130" y2="130" class="grid-line" />
            <line x1="0" x2="1000" y1="140" y2="140" class="grid-line" />
            <line x1="0" x2="1000" y1="150" y2="150" class="grid-line" />
            <line x1="0" x2="1000" y1="160" y2="160" class="grid-line" />
            <line x1="0" x2="1000" y1="170" y2="170" class="grid-line" />
            <line x1="0" x2="1000" y1="180" y2="180" class="grid-line" />
            <line x1="0" x2="1000" y1="190" y2="190" class="grid-line" />
            <line x1="0" x2="1000" y1="200" y2="200" class="grid-line" />
            <line x1="0" x2="1000" y1="210" y2="210" class="grid-line" />

            <line y1="0" y2="220" x1="10" x2="10" class="grid-line" />
            <line y1="0" y2="220" x1="20" x2="20" class="grid-line" />
            <line y1="0" y2="220" x1="30" x2="30" class="grid-line" />
            <line y1="0" y2="220" x1="40" x2="40" class="grid-line" />
            <line y1="0" y2="220" x1="50" x2="50" class="grid-line" />
            <line y1="0" y2="220" x1="60" x2="60" class="grid-line" />
            <line y1="0" y2="220" x1="70" x2="70" class="grid-line" />
            <line y1="0" y2="220" x1="80" x2="80" class="grid-line" />
            <line y1="0" y2="220" x1="90" x2="90" class="grid-line" />
            <line y1="0" y2="220" x1="100" x2="100" class="grid-line" />
            <line y1="0" y2="220" x1="110" x2="110" class="grid-line" />
            <line y1="0" y2="220" x1="120" x2="120" class="grid-line" />
            <line y1="0" y2="220" x1="130" x2="130" class="grid-line" />
            <line y1="0" y2="220" x1="140" x2="140" class="grid-line" />
            <line y1="0" y2="220" x1="150" x2="150" class="grid-line" />
            <line y1="0" y2="220" x1="160" x2="160" class="grid-line" />
            <line y1="0" y2="220" x1="170" x2="170" class="grid-line" />
            <line y1="0" y2="220" x1="180" x2="180" class="grid-line" />
            <line y1="0" y2="220" x1="190" x2="190" class="grid-line" />
            <line y1="0" y2="220" x1="200" x2="200" class="grid-line" />
            <line y1="0" y2="220" x1="210" x2="210" class="grid-line" />
            <line y1="0" y2="220" x1="220" x2="220" class="grid-line" />
            <line y1="0" y2="220" x1="230" x2="230" class="grid-line" />
            <line y1="0" y2="220" x1="240" x2="240" class="grid-line" />
            <line y1="0" y2="220" x1="250" x2="250" class="grid-line" />
            <line y1="0" y2="220" x1="260" x2="260" class="grid-line" />
            <line y1="0" y2="220" x1="270" x2="270" class="grid-line" />
            <line y1="0" y2="220" x1="280" x2="280" class="grid-line" />
            <line y1="0" y2="220" x1="290" x2="290" class="grid-line" />
            <line y1="0" y2="220" x1="300" x2="300" class="grid-line" />
            <line y1="0" y2="220" x1="310" x2="310" class="grid-line" />
            <line y1="0" y2="220" x1="320" x2="320" class="grid-line" />
            <line y1="0" y2="220" x1="330" x2="330" class="grid-line" />
            <line y1="0" y2="220" x1="340" x2="340" class="grid-line" />
            <line y1="0" y2="220" x1="350" x2="350" class="grid-line" />
            <line y1="0" y2="220" x1="360" x2="360" class="grid-line" />
            <line y1="0" y2="220" x1="370" x2="370" class="grid-line" />
            <line y1="0" y2="220" x1="380" x2="380" class="grid-line" />
            <line y1="0" y2="220" x1="390" x2="390" class="grid-line" />
            <line y1="0" y2="220" x1="400" x2="400" class="grid-line" />
            <line y1="0" y2="220" x1="410" x2="410" class="grid-line" />
            <line y1="0" y2="220" x1="420" x2="420" class="grid-line" />
            <line y1="0" y2="220" x1="430" x2="430" class="grid-line" />
            <line y1="0" y2="220" x1="440" x2="440" class="grid-line" />
            <line y1="0" y2="220" x1="450" x2="450" class="grid-line" />
            <line y1="0" y2="220" x1="460" x2="460" class="grid-line" />
            <line y1="0" y2="220" x1="470" x2="470" class="grid-line" />
            <line y1="0" y2="220" x1="480" x2="480" class="grid-line" />
            <line y1="0" y2="220" x1="490" x2="490" class="grid-line" />
            <line y1="0" y2="220" x1="500" x2="500" class="grid-line" />
            <line y1="0" y2="220" x1="510" x2="510" class="grid-line" />
            <line y1="0" y2="220" x1="520" x2="520" class="grid-line" />
            <line y1="0" y2="220" x1="530" x2="530" class="grid-line" />
            <line y1="0" y2="220" x1="540" x2="540" class="grid-line" />
            <line y1="0" y2="220" x1="550" x2="550" class="grid-line" />
            <line y1="0" y2="220" x1="560" x2="560" class="grid-line" />
            <line y1="0" y2="220" x1="570" x2="570" class="grid-line" />
            <line y1="0" y2="220" x1="580" x2="580" class="grid-line" />
            <line y1="0" y2="220" x1="590" x2="590" class="grid-line" />
            <line y1="0" y2="220" x1="600" x2="600" class="grid-line" />
            <line y1="0" y2="220" x1="610" x2="610" class="grid-line" />
            <line y1="0" y2="220" x1="620" x2="620" class="grid-line" />
            <line y1="0" y2="220" x1="630" x2="630" class="grid-line" />
            <line y1="0" y2="220" x1="640" x2="640" class="grid-line" />
            <line y1="0" y2="220" x1="650" x2="650" class="grid-line" />
            <line y1="0" y2="220" x1="660" x2="660" class="grid-line" />
            <line y1="0" y2="220" x1="670" x2="670" class="grid-line" />
            <line y1="0" y2="220" x1="680" x2="680" class="grid-line" />
            <line y1="0" y2="220" x1="690" x2="690" class="grid-line" />
            <line y1="0" y2="220" x1="700" x2="700" class="grid-line" />
            <line y1="0" y2="220" x1="710" x2="710" class="grid-line" />
            <line y1="0" y2="220" x1="720" x2="720" class="grid-line" />
            <line y1="0" y2="220" x1="730" x2="730" class="grid-line" />
            <line y1="0" y2="220" x1="740" x2="740" class="grid-line" />
            <line y1="0" y2="220" x1="750" x2="750" class="grid-line" />
            <line y1="0" y2="220" x1="760" x2="760" class="grid-line" />
            <line y1="0" y2="220" x1="770" x2="770" class="grid-line" />
            <line y1="0" y2="220" x1="780" x2="780" class="grid-line" />
            <line y1="0" y2="220" x1="790" x2="790" class="grid-line" />
            <line y1="0" y2="220" x1="800" x2="800" class="grid-line" />
            <line y1="0" y2="220" x1="810" x2="810" class="grid-line" />
            <line y1="0" y2="220" x1="820" x2="820" class="grid-line" />
            <line y1="0" y2="220" x1="830" x2="830" class="grid-line" />
            <line y1="0" y2="220" x1="840" x2="840" class="grid-line" />
            <line y1="0" y2="220" x1="850" x2="850" class="grid-line" />
            <line y1="0" y2="220" x1="860" x2="860" class="grid-line" />
            <line y1="0" y2="220" x1="870" x2="870" class="grid-line" />
            <line y1="0" y2="220" x1="880" x2="880" class="grid-line" />
            <line y1="0" y2="220" x1="890" x2="890" class="grid-line" />
            <line y1="0" y2="220" x1="900" x2="900" class="grid-line" />
            <line y1="0" y2="220" x1="910" x2="910" class="grid-line" />
            <line y1="0" y2="220" x1="920" x2="920" class="grid-line" />
            <line y1="0" y2="220" x1="930" x2="930" class="grid-line" />
            <line y1="0" y2="220" x1="940" x2="940" class="grid-line" />
            <line y1="0" y2="220" x1="950" x2="950" class="grid-line" />
            <line y1="0" y2="220" x1="960" x2="960" class="grid-line" />
            <line y1="0" y2="220" x1="970" x2="970" class="grid-line" />
            <line y1="0" y2="220" x1="980" x2="980" class="grid-line" />
            <line y1="0" y2="220" x1="990" x2="990" class="grid-line" />


        <line x1="10" y1="190" x2="990" y2="190" class="axis"/>
            <line y1="0" y2="220" x1="20" x2="20" style="stroke: #fa9e9b;stroke-width:1;" />
            <line y1="0" y2="220" x1="140" x2="140" style="stroke: #fa9e9b;stroke-width:1;" />
            <line y1="0" y2="220" x1="260" x2="260" style="stroke: #fa9e9b;stroke-width:1;" />
            <line y1="0" y2="220" x1="380" x2="380" style="stroke: #fa9e9b;stroke-width:1;" />
            <line y1="0" y2="220" x1="500" x2="500" style="stroke: #fa9e9b;stroke-width:1;" />
            <line y1="0" y2="220" x1="620" x2="620" style="stroke: #fa9e9b;stroke-width:1;" />
            <line y1="0" y2="220" x1="740" x2="740" style="stroke: #fa9e9b;stroke-width:1;" />
            <line y1="0" y2="220" x1="860" x2="860" style="stroke: #fa9e9b;stroke-width:1;" />
            <line y1="0" y2="220" x1="980" x2="980" style="stroke: #fa9e9b;stroke-width:1;" />

        <marker id="StartMarker" markerWidth="4" markerHeight="4" refX="2" refY="2">
            <circle cx="2" cy="2" r="2" style="stroke: none; fill:#000000;"/>
        </marker>

        <g transform="translate(20, 190)">



                <polygon points="290,0 310,-58 460,-58 480,0" class="poly" style="fill:#cd381e;"/>




                <line x1="320" y1="-51.5"
                      x2="320" y2="-70"
                      marker-start="url(#StartMarker)" class="period-text" />

                <polygon points="100,0 120,-45 350,-45 370,0" class="poly" style="fill:#451e47;"/>




                <line x1="130" y1="-38.5"
                      x2="130" y2="-70"
                      marker-start="url(#StartMarker)" class="period-text" />

                <polygon points="370,0 390,-45 760,-45 780,0" class="poly" style="fill:#7f6ea6;"/>




                <line x1="660" y1="-38.5"
                      x2="660" y2="-70"
                      marker-start="url(#StartMarker)" class="period-text" />

                <polygon points="810,0 830,-45 810,-45 830,0" class="poly" style="fill:#ff6f16;"/>




                <line x1="800" y1="-38.5"
                      x2="800" y2="-110"
                      marker-start="url(#StartMarker)" class="period-text" />

                <polygon points="840,0 860,-45 940,-45 960,0" class="poly" style="fill:#dad6ed;"/>




                <line x1="920" y1="-38.5"
                      x2="920" y2="-70"
                      marker-start="url(#StartMarker)" class="period-text" />


                <g transform="translate(310, -70)">
                    <rect x="0" y="-16" rx="5" ry="5"
                          width="40" height="30" fill="white" stroke="red" stroke-width="1"/>
                    <line x1="0"                                y1="14"
                          x2="40" y2="14"
                          style="stroke:#cd381e; stroke-width:1" />

                    <text stroke-width="3" >
                        <tspan x="5" font-weight="bold">TPK</tspan>
                        <tspan x="5" dy="12"></tspan>
                    </text>
                </g>

                <g transform="translate(120, -70)">
                    <rect x="0" y="-16" rx="5" ry="5"
                          width="180" height="30" fill="white" stroke="red" stroke-width="1"/>
                    <line x1="0"                                y1="14"
                          x2="180" y2="14"
                          style="stroke:#451e47; stroke-width:1" />

                    <text stroke-width="3" >
                        <tspan x="5" font-weight="bold">Itransition</tspan>
                        <tspan x="5" dy="12">Software Engineer</tspan>
                    </text>
                </g>

                <g transform="translate(420, -70)">
                    <rect x="0" y="-16" rx="5" ry="5"
                          width="250" height="30" fill="white" stroke="red" stroke-width="1"/>
                    <line x1="0"                                y1="14"
                          x2="250" y2="14"
                          style="stroke:#7f6ea6; stroke-width:1" />

                    <text stroke-width="3" >
                        <tspan x="5" font-weight="bold">Exadel</tspan>
                        <tspan x="5" dy="12">Senior Software Engineer</tspan>
                    </text>
                </g>

                <g transform="translate(560, -110)">
                    <rect x="0" y="-16" rx="5" ry="5"
                          width="250" height="30" fill="white" stroke="red" stroke-width="1"/>
                    <line x1="0"                                y1="14"
                          x2="250" y2="14"
                          style="stroke:#ff6f16; stroke-width:1" />

                    <text stroke-width="3" >
                        <tspan x="5" font-weight="bold">Profitero</tspan>
                        <tspan x="5" dy="12">Senior Software Engineer</tspan>
                    </text>
                </g>

                <g transform="translate(680, -70)">
                    <rect x="0" y="-16" rx="5" ry="5"
                          width="250" height="30" fill="white" stroke="red" stroke-width="1"/>
                    <line x1="0"                                y1="14"
                          x2="250" y2="14"
                          style="stroke:#dad6ed; stroke-width:1" />

                    <text stroke-width="3" >
                        <tspan x="5" font-weight="bold">Exigen Services</tspan>
                        <tspan x="5" dy="12">Senior Software Engineer</tspan>
                    </text>
                </g>
        </g>

            <text x="145" y="214" style="font-size:24; fill:#fa9e9b">2007</text>
            <text x="265" y="214" style="font-size:24; fill:#fa9e9b">2008</text>
            <text x="385" y="214" style="font-size:24; fill:#fa9e9b">2009</text>
            <text x="505" y="214" style="font-size:24; fill:#fa9e9b">2010</text>
            <text x="625" y="214" style="font-size:24; fill:#fa9e9b">2011</text>
            <text x="745" y="214" style="font-size:24; fill:#fa9e9b">2012</text>
            <text x="865" y="214" style="font-size:24; fill:#fa9e9b">2013</text>

        <g transform="translate(20, 190)">
                <circle cx="290" cy="0" r="3" stroke="#cd381e" stroke-width="3" fill="#cd381e" />
                <circle cx="480" cy="0" r="3" stroke="#cd381e" stroke-width="3" fill="#cd381e"/>
                <circle cx="100" cy="0" r="3" stroke="#451e47" stroke-width="3" fill="#451e47" />
                <circle cx="370" cy="0" r="3" stroke="#451e47" stroke-width="3" fill="#451e47"/>
                <circle cx="370" cy="0" r="3" stroke="#7f6ea6" stroke-width="3" fill="#7f6ea6" />
                <circle cx="780" cy="0" r="3" stroke="#7f6ea6" stroke-width="3" fill="#7f6ea6"/>
                <circle cx="810" cy="0" r="3" stroke="#ff6f16" stroke-width="3" fill="#ff6f16" />
                <circle cx="830" cy="0" r="3" stroke="#ff6f16" stroke-width="3" fill="#ff6f16"/>
                <circle cx="840" cy="0" r="3" stroke="#dad6ed" stroke-width="3" fill="#dad6ed" />
                <circle cx="960" cy="0" r="3" stroke="#dad6ed" stroke-width="3" fill="#dad6ed"/>
        </g>
    </g>


</svg>